<!-- Generated by IcoMoon.io -->
<svg xmlns="http://www.w3.org/2000/svg" width="24" height="24" viewBox="0 0 24 24">
<title>table-of-contents</title>
<path d="M22.875 19.5c0.621 0 1.125 0.504 1.125 1.125v0.75c0 0.621-0.504 1.125-1.125 1.125h-21.75c-0.621 0-1.125-0.504-1.125-1.125v-0.75c0-0.621 0.504-1.125 1.125-1.125h21.75zM22.875 13.5c0.621 0 1.125 0.504 1.125 1.125v0.75c0 0.621-0.504 1.125-1.125 1.125h-21.75c-0.621 0-1.125-0.504-1.125-1.125v-0.75c0-0.621 0.504-1.125 1.125-1.125h21.75zM22.875 7.5c0.621 0 1.125 0.504 1.125 1.125v0.75c0 0.621-0.504 1.125-1.125 1.125h-21.75c-0.621 0-1.125-0.504-1.125-1.125v-0.75c0-0.621 0.504-1.125 1.125-1.125h21.75zM22.875 1.5c0.621 0 1.125 0.504 1.125 1.125v0.75c0 0.621-0.504 1.125-1.125 1.125h-21.75c-0.621 0-1.125-0.504-1.125-1.125v-0.75c0-0.621 0.504-1.125 1.125-1.125h21.75z"></path>
</svg>
