<?xml version="1.0" encoding="UTF-8"?>
<svg width="25px" height="25px" viewBox="0 0 25 25" version="1.1" xmlns="http://www.w3.org/2000/svg" xmlns:xlink="http://www.w3.org/1999/xlink">
    <title>unit-manager</title>
    <g id="Drafts" stroke="none" stroke-width="1" fill="none" fill-rule="evenodd">
        <g id="Artboard" transform="translate(-129.000000, -133.000000)" fill="#000000" fill-rule="nonzero">
            <path d="M135.25,150.247 C135.802285,150.247 136.25,150.694715 136.25,151.247 L136.25,156.247 C136.25,156.799285 135.802285,157.247 135.25,157.247 L130.25,157.247 C129.697715,157.247 129.25,156.799285 129.25,156.247 L129.25,151.247 C129.25,150.694715 129.697715,150.247 130.25,150.247 L135.25,150.247 Z M143.75,150.247 C144.302285,150.247 144.75,150.694715 144.75,151.247 L144.75,156.247 C144.75,156.799285 144.302285,157.247 143.75,157.247 L138.75,157.247 C138.197715,157.247 137.75,156.799285 137.75,156.247 L137.75,151.247 C137.75,150.694715 138.197715,150.247 138.75,150.247 L143.75,150.247 Z M152.25,150.247 C152.802285,150.247 153.25,150.694715 153.25,151.247 L153.25,156.247 C153.25,156.799285 152.802285,157.247 152.25,157.247 L147.25,157.247 C146.697715,157.247 146.25,156.799285 146.25,156.247 L146.25,151.247 C146.25,150.694715 146.697715,150.247 147.25,150.247 L152.25,150.247 Z M135.25,141.747 C135.802285,141.747 136.25,142.194715 136.25,142.747 L136.25,147.747 C136.25,148.299285 135.802285,148.747 135.25,148.747 L130.25,148.747 C129.697715,148.747 129.25,148.299285 129.25,147.747 L129.25,142.747 C129.25,142.194715 129.697715,141.747 130.25,141.747 L135.25,141.747 Z M143.75,141.747 C144.302285,141.747 144.75,142.194715 144.75,142.747 L144.75,147.747 C144.75,148.299285 144.302285,148.747 143.75,148.747 L138.75,148.747 C138.197715,148.747 137.75,148.299285 137.75,147.747 L137.75,142.747 C137.75,142.194715 138.197715,141.747 138.75,141.747 L143.75,141.747 Z M152.25,141.747 C152.802285,141.747 153.25,142.194715 153.25,142.747 L153.25,147.747 C153.25,148.299285 152.802285,148.747 152.25,148.747 L147.25,148.747 C146.697715,148.747 146.25,148.299285 146.25,147.747 L146.25,142.747 C146.25,142.194715 146.697715,141.747 147.25,141.747 L152.25,141.747 Z M135.25,133.247 C135.802285,133.247 136.25,133.694715 136.25,134.247 L136.25,139.247 C136.25,139.799285 135.802285,140.247 135.25,140.247 L130.25,140.247 C129.697715,140.247 129.25,139.799285 129.25,139.247 L129.25,134.247 C129.25,133.694715 129.697715,133.247 130.25,133.247 L135.25,133.247 Z M143.75,133.247 C144.302285,133.247 144.75,133.694715 144.75,134.247 L144.75,139.247 C144.75,139.799285 144.302285,140.247 143.75,140.247 L138.75,140.247 C138.197715,140.247 137.75,139.799285 137.75,139.247 L137.75,134.247 C137.75,133.694715 138.197715,133.247 138.75,133.247 L143.75,133.247 Z M152.25,133.247 C152.802285,133.247 153.25,133.694715 153.25,134.247 L153.25,139.247 C153.25,139.799285 152.802285,140.247 152.25,140.247 L147.25,140.247 C146.697715,140.247 146.25,139.799285 146.25,139.247 L146.25,134.247 C146.25,133.694715 146.697715,133.247 147.25,133.247 L152.25,133.247 Z" id="unit-manager"></path>
        </g>
    </g>
</svg>